<svg id="Ebene_3" data-name="Ebene 3" xmlns="http://www.w3.org/2000/svg" viewBox="0 0 153.07087 68.0315"><defs><style>.cls-1{fill:#1d1d1b;}</style></defs><path class="cls-1" d="M123.15377,48.02377a9.81294,9.81294,0,0,1-3.18-7.3311l-.04567-1.73515.04567-1.7353a9.81412,9.81412,0,0,1,3.18-7.33109,11.69414,11.69414,0,0,1,8.03021-2.64619,13.87761,13.87761,0,0,1,6.1085,1.21461,9.33111,9.33111,0,0,1,3.70624,2.97156,6.6644,6.6644,0,0,1,1.304,3.3619.82424.82424,0,0,1-.29737.73751,1.17121,1.17121,0,0,1-.80075.30358H137.1323a1.11717,1.11717,0,0,1-.73208-.19517,2.0182,2.0182,0,0,1-.45755-.71571,4.52114,4.52114,0,0,0-4.66718-3.12343,4.74915,4.74915,0,0,0-3.63757,1.38813,6.33455,6.33455,0,0,0-1.39549,4.25127l-.04583,1.60509.04583,1.43143q.27453,5.63983,5.03306,5.63939a5.203,5.203,0,0,0,2.88265-.71571,5.00005,5.00005,0,0,0,1.78453-2.40757,1.70733,1.70733,0,0,1,.43471-.6942,1.12984,1.12984,0,0,1,.75492-.21682h4.07228a1.174,1.174,0,0,1,.80075.30357.82555.82555,0,0,1,.29737.73752,6.681,6.681,0,0,1-1.28114,3.27513,9.47828,9.47828,0,0,1-3.66056,3.01487A13.54262,13.54262,0,0,1,131.184,50.67,11.6913,11.6913,0,0,1,123.15377,48.02377Z"/><path class="cls-1" d="M114.52883,28.02286a1.06162,1.06162,0,0,0-.77791-.32036h-3.88909a1.10194,1.10194,0,0,0-.778.29735,1.04043,1.04043,0,0,0-.32036.80076V49.115a1.09379,1.09379,0,0,0,1.09831,1.0981h3.88909a1.09377,1.09377,0,0,0,1.09826-1.0981V28.80061A1.06207,1.06207,0,0,0,114.52883,28.02286Z"/><rect class="cls-1" x="55.13763" y="17.36155" width="6.4517" height="6.4517" rx="1.09123"/><rect class="cls-1" x="108.5805" y="17.36155" width="6.4517" height="6.4517" rx="1.09123"/><path class="cls-1" d="M61.086,28.02286a1.06162,1.06162,0,0,0-.77791-.32036H56.419a1.10194,1.10194,0,0,0-.778.29735,1.04043,1.04043,0,0,0-.32036.80076V39.2062a1.09124,1.09124,0,0,1-.54562.945L52.82343,41.278a1.09123,1.09123,0,0,0-.54562.945v6.892a1.09379,1.09379,0,0,0,1.09831,1.0981h3.88909a1.09377,1.09377,0,0,0,1.09826-1.0981V38.70946a1.09122,1.09122,0,0,1,.54562-.945l1.9516-1.12677a1.09122,1.09122,0,0,0,.54561-.945v-6.892A1.06207,1.06207,0,0,0,61.086,28.02286Z"/><path class="cls-1" d="M44.08741,29.80723a7.99109,7.99109,0,0,0-6.13116-2.56229,8.79314,8.79314,0,0,0-4.3468,1.121,8.18058,8.18058,0,0,0-3.1115,2.95132q-2.01405-4.07181-7.09213-4.07228a10.04861,10.04861,0,0,0-1.41666.09877,7.86065,7.86065,0,0,0-5.21792,3.01257l-1.21712-2.10815a1.09125,1.09125,0,0,0-.94505-.54563H12.05838a1.10193,1.10193,0,0,0-.77791.29735,1.04042,1.04042,0,0,0-.32035.80076V49.115a1.09377,1.09377,0,0,0,1.09826,1.0981h3.88913a1.04,1.04,0,0,0,.80076-.32035,1.101,1.101,0,0,0,.29751-.77775V37.63158a5.796,5.796,0,0,1,1.25832-4.141,4.07212,4.07212,0,0,1,3.04267-1.304,4.15778,4.15778,0,0,1,3.15715,1.304,5.87,5.87,0,0,1,1.23548,4.141V49.115a1.0935,1.0935,0,0,0,1.09814,1.0981H30.681a1.04008,1.04008,0,0,0,.80073-.32035,1.10092,1.10092,0,0,0,.29738-.77775V37.63158a5.79675,5.79675,0,0,1,1.25828-4.141,4.07285,4.07285,0,0,1,3.04283-1.304,4.17908,4.17908,0,0,1,3.18,1.28115,5.93418,5.93418,0,0,1,1.21247,4.16379V49.115a1.09377,1.09377,0,0,0,1.09827,1.0981H45.3687a1.03986,1.03986,0,0,0,.80064-.32035,1.10116,1.10116,0,0,0,.29751-.77775V37.26555Q46.46685,32.36988,44.08741,29.80723Z"/><path class="cls-1" d="M100.57311,29.80723A7.99109,7.99109,0,0,0,94.442,27.24494a8.79317,8.79317,0,0,0-4.34681,1.121,8.18058,8.18058,0,0,0-3.1115,2.95132q-2.014-4.07181-7.09213-4.07228a10.04861,10.04861,0,0,0-1.41666.09877,7.86067,7.86067,0,0,0-5.21792,3.01257l-1.21712-2.10815a1.09125,1.09125,0,0,0-.945-.54563H68.54409a1.102,1.102,0,0,0-.77792.29735,1.04042,1.04042,0,0,0-.32035.80076V49.115a1.09377,1.09377,0,0,0,1.09827,1.0981h3.88912a1.04,1.04,0,0,0,.80077-.32035,1.101,1.101,0,0,0,.2975-.77775V37.63158a5.796,5.796,0,0,1,1.25832-4.141,4.07214,4.07214,0,0,1,3.04267-1.304,4.15776,4.15776,0,0,1,3.15715,1.304,5.87,5.87,0,0,1,1.23548,4.141V49.115a1.0935,1.0935,0,0,0,1.09815,1.0981h3.84343a1.04007,1.04007,0,0,0,.80072-.32035,1.10088,1.10088,0,0,0,.29738-.77775V37.63158a5.7967,5.7967,0,0,1,1.25829-4.141,4.07284,4.07284,0,0,1,3.04283-1.304,4.1791,4.1791,0,0,1,3.18,1.28115,5.93423,5.93423,0,0,1,1.21246,4.16379V49.115a1.09379,1.09379,0,0,0,1.09827,1.0981h3.79774a1.03989,1.03989,0,0,0,.80064-.32035,1.10119,1.10119,0,0,0,.2975-.77775V37.26555Q102.95255,32.36988,100.57311,29.80723Z"/></svg>